<svg version="1.1" xmlns="http://www.w3.org/2000/svg" style="display: block;" viewBox="0 0 2048 2048" width="512" height="512" preserveAspectRatio="none">
<path transform="translate(0,0)" fill="rgb(0,0,0)" d="M 1385.96 12.5 L 1696.19 13.1321 L 1809.57 13.0044 C 1831.22 12.9736 1852.53 12.9528 1874.3 13.4567 C 1955.67 15.3406 2027.95 85.5452 2039.02 164.906 C 2041.71 184.18 2040.77 208.525 2040.77 228.36 L 2040.63 325.156 L 2040.79 626.928 L 2040.96 1096.29 L 2040.91 1248.65 C 2040.88 1276.82 2042.12 1307.95 2040.03 1336.13 C 2033.99 1417.53 1967.62 1487.28 1887.14 1498.85 C 1855.72 1503.37 1820.46 1501.18 1788.94 1501.09 L 1632.74 1501.04 L 1428.5 1501.95 C 1396.95 1502.09 1352.42 1503.65 1322.56 1501.62 C 1344.83 1588.16 1373.03 1675.71 1396.69 1761.87 C 1404.4 1789.91 1420.17 1834.27 1424.88 1860.61 C 1442.54 1862.1 1466.78 1861.22 1485.12 1861.31 C 1533.86 1861.52 1583.47 1860.78 1632.12 1861.26 C 1679.39 1861.72 1708.9 1895.21 1707.22 1941.45 C 1706.11 1971.95 1708.08 2003.71 1706.45 2034.47 C 1673.44 2035.34 1633.46 2033.95 1599.46 2033.99 L 1333.11 2033.9 L 662.5 2033.8 L 465.453 2034.3 C 425.076 2034.29 382.03 2033.28 342.03 2034.07 C 342.59 2007.69 341.659 1980.28 341.736 1953.71 C 341.181 1925.05 343.367 1903.18 364.619 1882.21 C 385.662 1861.44 407.056 1860.76 435.255 1861.26 C 447.923 1861.48 461.726 1861.3 474.525 1861.29 L 624.002 1861.55 L 725.512 1501.89 L 353.783 1500.39 L 238.177 1500.73 C 205.614 1500.79 171.074 1502.43 139.263 1496.03 C 109.349 1490.04 81.893 1475.29 60.3915 1453.65 C 19.9133 1413.63 7.31312 1370.75 6.9596 1315.45 L 6.69433 520.911 L 6.88197 287.306 L 6.93066 221.459 C 6.95144 200.648 6.43168 181.191 9.70064 160.479 C 15.5625 123.803 32.9651 89.9511 59.3804 63.8413 C 84.7311 38.3491 117.758 20.3002 153.473 14.6564 C 169.59 12.1095 190.323 12.7259 206.986 12.7513 L 276.508 12.8895 L 520.735 13.0228 L 1385.96 12.5 z M 909.293 1501.65 C 875.704 1606.95 847.55 1714.85 814.826 1820.49 C 810.559 1834.26 807.522 1847.51 802.464 1861.14 C 840.012 1859.76 882.003 1860.88 919.959 1861.03 L 1100.25 1861.04 C 1148.88 1860.86 1198.3 1861.27 1246.83 1860.61 C 1241.8 1848.84 1238.17 1834.13 1234.28 1821.79 C 1226.48 1797.07 1219.99 1771.59 1212.5 1746.83 C 1187.32 1665.49 1162.75 1583.96 1138.78 1502.25 C 1113.06 1501.3 1087.26 1501.93 1061.56 1501.54 C 1025.1 1500.99 988.825 1500.92 952.347 1501.5 C 938.766 1501.66 922.659 1502.22 909.293 1501.65 z"/>
<path transform="translate(0,0)" fill="rgb(254,254,254)" d="M 759.628 375.385 C 773.123 373.522 799.401 375.083 813.895 375.129 L 915.137 375.167 L 1046.2 375.153 C 1055.6 375.143 1069.87 375.886 1079.04 375.104 C 1295.51 356.577 1437.56 596.859 1302.05 772.267 C 1273.25 809.547 1212.66 852.921 1165.02 858.964 C 1171.92 864.539 1184.39 877.869 1191.18 884.801 C 1208.66 902.645 1226.03 920.593 1243.29 938.644 C 1271.68 967.903 1301.07 995.944 1329.36 1025.55 C 1348.5 1045.59 1356.83 1071.14 1346.69 1097.97 C 1333.41 1133.11 1290.43 1145.55 1257.57 1131.22 C 1248.68 1127.34 1241.51 1122.21 1234.45 1115.48 C 1200.16 1082.26 1167.29 1047.54 1133.4 1013.92 L 1016.25 896.408 C 998.935 879.061 981.295 861.818 963.711 844.741 C 940.933 822.62 935.613 793.029 950.71 764.976 C 970.698 731.822 998.822 733.485 1032.73 731.978 C 1082.76 729.754 1137.55 742.51 1179.95 711.01 C 1235.27 669.905 1242.32 591.558 1194.54 542.394 C 1150.24 496.814 1091.38 508.941 1033.88 509.007 L 828.421 508.85 C 829.552 532.483 828.679 564.236 828.775 588.762 L 828.776 774.43 L 828.697 944.496 C 828.628 1001.94 831.036 1070.38 817.126 1125.67 C 807.166 1129.4 799.51 1131.67 789.127 1133.15 C 741.602 1140.07 699.837 1132.42 694.764 1076.07 C 691.472 1039.49 692.912 1002.58 692.873 965.926 L 692.717 768.001 L 692.94 553.272 L 692.948 484.611 C 692.95 470.326 692.706 456.35 693.599 442.079 C 695.943 404.614 723.266 379.576 759.628 375.385 z"/>
</svg>